<svg width="512" height="512" viewBox="0 0 512 512" fill="none" xmlns="http://www.w3.org/2000/svg">
  <rect width="512" height="512" rx="100" fill="#3A86FF"/>
  <g filter="url(#filter0_d)">
    <path d="M156 160C156 149.507 164.507 141 175 141H337C347.493 141 356 149.507 356 160V339.2C356 349.693 347.493 358.2 337 358.2H175C164.507 358.2 156 349.693 156 339.2V160Z" fill="white"/>
  </g>
  <path d="M170 179C170 173.477 174.477 169 180 169H332C337.523 169 342 173.477 342 179V192C342 197.523 337.523 202 332 202H180C174.477 202 170 197.523 170 192V179Z" fill="#3A86FF"/>
  <path d="M170 227C170 221.477 174.477 217 180 217H332C337.523 217 342 221.477 342 227V240C342 245.523 337.523 250 332 250H180C174.477 250 170 245.523 170 240V227Z" fill="#3A86FF"/>
  <path d="M170 275C170 269.477 174.477 265 180 265H332C337.523 265 342 269.477 342 275V288C342 293.523 337.523 298 332 298H180C174.477 298 170 293.523 170 288V275Z" fill="#3A86FF"/>
  <path d="M170 323C170 317.477 174.477 313 180 313H332C337.523 313 342 317.477 342 323V336C342 341.523 337.523 346 332 346H180C174.477 346 170 341.523 170 336V323Z" fill="#3A86FF"/>
  <path fill-rule="evenodd" clip-rule="evenodd" d="M256 84C268.15 84 278 93.8497 278 106V141H234V106C234 93.8497 243.85 84 256 84Z" fill="#FFD500"/>
  <defs>
    <filter id="filter0_d" x="146" y="135" width="220" height="237.2" filterUnits="userSpaceOnUse" color-interpolation-filters="sRGB">
      <feFlood flood-opacity="0" result="BackgroundImageFix"/>
      <feColorMatrix in="SourceAlpha" type="matrix" values="0 0 0 0 0 0 0 0 0 0 0 0 0 0 0 0 0 0 127 0"/>
      <feOffset dy="4"/>
      <feGaussianBlur stdDeviation="5"/>
      <feColorMatrix type="matrix" values="0 0 0 0 0 0 0 0 0 0 0 0 0 0 0 0 0 0 0.25 0"/>
      <feBlend mode="normal" in2="BackgroundImageFix" result="effect1_dropShadow"/>
      <feBlend mode="normal" in="SourceGraphic" in2="effect1_dropShadow" result="shape"/>
    </filter>
  </defs>
</svg>